<svg xmlns="http://www.w3.org/2000/svg" width="432" height="432" viewBox="0 0 432 432">
  <!-- €-mit-Paddeln-Emblem, weiß auf transparent, adaptive Sicherheitszone -->
  <g transform="translate(26.50,26.50) scale(0.7402)">
  <path d="M 326.3 345.2 A 120 120 0 1 0 326.3 166.8" fill="none" stroke="#ffffff" stroke-width="34" stroke-linecap="round"/>
  <rect x="132" y="196" width="228" height="24" rx="12" fill="#ffffff"/>
  <path d="M 132.0 196.0 L 130.1 192.9 L 128.1 190.2 L 126.1 187.8 L 123.9 185.6 L 121.8 183.7 L 119.6 182.1 L 117.3 180.6 L 115.0 179.4 L 112.7 178.4 L 110.3 177.6 L 107.9 176.9 L 105.5 176.4 L 103.1 176.0 L 100.7 175.7 L 98.3 175.5 L 96.0 175.4 L 93.6 175.4 L 91.2 175.4 L 91.2 175.4 L 89.0 175.4 L 87.0 175.5 L 85.2 175.6 L 83.5 175.8 L 82.0 175.9 L 80.7 176.1 L 79.5 176.3 L 78.4 176.4 L 77.3 176.6 L 76.4 176.8 L 75.5 176.9 L 74.6 177.1 L 73.7 177.2 L 72.8 177.4 L 71.9 177.5 L 70.9 177.5 L 69.9 177.6 L 68.7 177.6 L 68.7 177.6 L 67.5 178.5 L 66.4 180.6 L 65.5 183.6 L 64.8 187.5 L 64.2 192.1 L 63.8 197.1 L 63.5 202.5 L 63.5 208.0 L 63.5 213.5 L 63.8 218.9 L 64.2 223.9 L 64.8 228.5 L 65.5 232.4 L 66.4 235.4 L 67.5 237.5 L 68.7 238.4 L 68.7 238.4 L 69.9 238.4 L 70.9 238.4 L 71.9 238.4 L 72.8 238.4 L 73.7 238.3 L 74.6 238.3 L 75.5 238.3 L 76.4 238.3 L 77.3 238.3 L 78.4 238.3 L 79.5 238.3 L 80.7 238.3 L 82.0 238.3 L 83.5 238.3 L 85.2 238.3 L 87.0 238.3 L 89.0 238.4 L 91.2 238.4 L 91.2 238.4 L 93.6 238.4 L 96.0 238.3 L 98.3 238.2 L 100.7 238.1 L 103.1 237.8 L 105.5 237.4 L 107.9 237.0 L 110.3 236.4 L 112.7 235.6 L 115.0 234.7 L 117.3 233.7 L 119.6 232.4 L 121.8 230.9 L 123.9 229.3 L 126.1 227.3 L 128.1 225.2 L 130.1 222.7 L 132.0 220.0 Z" fill="#ffffff"/>
  <path d="M 360.0 196.0 L 361.9 192.9 L 363.9 190.2 L 365.9 187.8 L 368.1 185.6 L 370.2 183.7 L 372.4 182.1 L 374.7 180.6 L 377.0 179.4 L 379.3 178.4 L 381.7 177.6 L 384.1 176.9 L 386.5 176.4 L 388.9 176.0 L 391.3 175.7 L 393.7 175.5 L 396.0 175.4 L 398.4 175.4 L 400.8 175.4 L 400.8 175.4 L 403.0 175.4 L 405.0 175.5 L 406.8 175.6 L 408.5 175.8 L 410.0 175.9 L 411.3 176.1 L 412.5 176.3 L 413.6 176.4 L 414.7 176.6 L 415.6 176.8 L 416.5 176.9 L 417.4 177.1 L 418.3 177.2 L 419.2 177.4 L 420.1 177.5 L 421.1 177.5 L 422.1 177.6 L 423.3 177.6 L 423.3 177.6 L 424.5 178.5 L 425.6 180.6 L 426.5 183.6 L 427.2 187.5 L 427.8 192.1 L 428.2 197.1 L 428.5 202.5 L 428.5 208.0 L 428.5 213.5 L 428.2 218.9 L 427.8 223.9 L 427.2 228.5 L 426.5 232.4 L 425.6 235.4 L 424.5 237.5 L 423.3 238.4 L 423.3 238.4 L 422.1 238.4 L 421.1 238.4 L 420.1 238.4 L 419.2 238.4 L 418.3 238.3 L 417.4 238.3 L 416.5 238.3 L 415.6 238.3 L 414.7 238.3 L 413.6 238.3 L 412.5 238.3 L 411.3 238.3 L 410.0 238.3 L 408.5 238.3 L 406.8 238.3 L 405.0 238.3 L 403.0 238.4 L 400.8 238.4 L 400.8 238.4 L 398.4 238.4 L 396.0 238.3 L 393.7 238.2 L 391.3 238.1 L 388.9 237.8 L 386.5 237.4 L 384.1 237.0 L 381.7 236.4 L 379.3 235.6 L 377.0 234.7 L 374.7 233.7 L 372.4 232.4 L 370.2 230.9 L 368.1 229.3 L 365.9 227.3 L 363.9 225.2 L 361.9 222.7 L 360.0 220.0 Z" fill="#ffffff"/>
  <rect x="132" y="292" width="228" height="24" rx="12" fill="#ffffff"/>
  <path d="M 132.0 292.0 L 130.1 288.9 L 128.1 286.2 L 126.1 283.8 L 123.9 281.6 L 121.8 279.7 L 119.6 278.1 L 117.3 276.6 L 115.0 275.4 L 112.7 274.4 L 110.3 273.6 L 107.9 272.9 L 105.5 272.4 L 103.1 272.0 L 100.7 271.7 L 98.3 271.5 L 96.0 271.4 L 93.6 271.4 L 91.2 271.4 L 91.2 271.4 L 89.0 271.4 L 87.0 271.5 L 85.2 271.6 L 83.5 271.8 L 82.0 271.9 L 80.7 272.1 L 79.5 272.3 L 78.4 272.4 L 77.3 272.6 L 76.4 272.8 L 75.5 272.9 L 74.6 273.1 L 73.7 273.2 L 72.8 273.4 L 71.9 273.5 L 70.9 273.5 L 69.9 273.6 L 68.7 273.6 L 68.7 273.6 L 67.5 274.5 L 66.4 276.6 L 65.5 279.6 L 64.8 283.5 L 64.2 288.1 L 63.8 293.1 L 63.5 298.5 L 63.5 304.0 L 63.5 309.5 L 63.8 314.9 L 64.2 319.9 L 64.8 324.5 L 65.5 328.4 L 66.4 331.4 L 67.5 333.5 L 68.7 334.4 L 68.7 334.4 L 69.9 334.4 L 70.9 334.4 L 71.9 334.4 L 72.8 334.4 L 73.7 334.3 L 74.6 334.3 L 75.5 334.3 L 76.4 334.3 L 77.3 334.3 L 78.4 334.3 L 79.5 334.3 L 80.7 334.3 L 82.0 334.3 L 83.5 334.3 L 85.2 334.3 L 87.0 334.3 L 89.0 334.4 L 91.2 334.4 L 91.2 334.4 L 93.6 334.4 L 96.0 334.3 L 98.3 334.2 L 100.7 334.1 L 103.1 333.8 L 105.5 333.4 L 107.9 333.0 L 110.3 332.4 L 112.7 331.6 L 115.0 330.7 L 117.3 329.7 L 119.6 328.4 L 121.8 326.9 L 123.9 325.3 L 126.1 323.3 L 128.1 321.2 L 130.1 318.7 L 132.0 316.0 Z" fill="#ffffff"/>
  <path d="M 360.0 292.0 L 361.9 288.9 L 363.9 286.2 L 365.9 283.8 L 368.1 281.6 L 370.2 279.7 L 372.4 278.1 L 374.7 276.6 L 377.0 275.4 L 379.3 274.4 L 381.7 273.6 L 384.1 272.9 L 386.5 272.4 L 388.9 272.0 L 391.3 271.7 L 393.7 271.5 L 396.0 271.4 L 398.4 271.4 L 400.8 271.4 L 400.8 271.4 L 403.0 271.4 L 405.0 271.5 L 406.8 271.6 L 408.5 271.8 L 410.0 271.9 L 411.3 272.1 L 412.5 272.3 L 413.6 272.4 L 414.7 272.6 L 415.6 272.8 L 416.5 272.9 L 417.4 273.1 L 418.3 273.2 L 419.2 273.4 L 420.1 273.5 L 421.1 273.5 L 422.1 273.6 L 423.3 273.6 L 423.3 273.6 L 424.5 274.5 L 425.6 276.6 L 426.5 279.6 L 427.2 283.5 L 427.8 288.1 L 428.2 293.1 L 428.5 298.5 L 428.5 304.0 L 428.5 309.5 L 428.2 314.9 L 427.8 319.9 L 427.2 324.5 L 426.5 328.4 L 425.6 331.4 L 424.5 333.5 L 423.3 334.4 L 423.3 334.4 L 422.1 334.4 L 421.1 334.4 L 420.1 334.4 L 419.2 334.4 L 418.3 334.3 L 417.4 334.3 L 416.5 334.3 L 415.6 334.3 L 414.7 334.3 L 413.6 334.3 L 412.5 334.3 L 411.3 334.3 L 410.0 334.3 L 408.5 334.3 L 406.8 334.3 L 405.0 334.3 L 403.0 334.4 L 400.8 334.4 L 400.8 334.4 L 398.4 334.4 L 396.0 334.3 L 393.7 334.2 L 391.3 334.1 L 388.9 333.8 L 386.5 333.4 L 384.1 333.0 L 381.7 332.4 L 379.3 331.6 L 377.0 330.7 L 374.7 329.7 L 372.4 328.4 L 370.2 326.9 L 368.1 325.3 L 365.9 323.3 L 363.9 321.2 L 361.9 318.7 L 360.0 316.0 Z" fill="#ffffff"/>
  </g>
</svg>
